<svg width="32" height="39" viewBox="0 0 32 39" xmlns="http://www.w3.org/2000/svg"><title>bell@3x</title><g stroke-width="1.774" stroke="#3D77EA" fill="none" fill-rule="evenodd" stroke-linecap="round" stroke-linejoin="round"><path d="M17 30.974c-2.166.061-19.038.334-15.519-3.944 1.348-1.638 2.814-3.255 3.212-5.364.542-2.873.746-5.786 1.173-8.674C6.656 7.63 8.48 1 15.596 1"/><path d="M15 30.974c2.166.061 19.038.334 15.519-3.944-1.348-1.638-2.814-3.255-3.212-5.364-.542-2.873-.746-5.786-1.173-8.674C25.344 7.63 23.52 1 16.404 1M23 31a7 7 0 0 1-14 0"/></g></svg>