<svg width="51" height="65" viewBox="0 0 51 65" xmlns="http://www.w3.org/2000/svg"><title>cabinets-white</title><g stroke-width="1.774" stroke="#FFF" fill="none" fill-rule="evenodd" stroke-linejoin="round"><path d="M25.544 57.845V1.458"/><path d="M33.505 30.294v4.686m-15.769-4.686v4.686" stroke-linecap="round"/><path d="M49.2 2.051L29.373 8.388v55.43l18.817-4.966-.008.007a1.78 1.78 0 0 0 .954-.494c.313-.313.494-.724.494-1.184V3.153c0-.41-.165-.806-.428-1.102a1.695 1.695 0 0 0-1.283-.592H3.17c-.938 0-1.71.773-1.71 1.694v54.028c0 .937.772 1.694 1.71 1.694h26.208"/></g></svg>