<svg width="45" height="31" viewBox="0 0 45 31" xmlns="http://www.w3.org/2000/svg"><title>calendar@3x</title><path d="M40.122 1H4.696C2.748 1 1.154 2.413 1.154 4.14v22.773c0 1.728 1.594 3.142 3.542 3.142h35.426c1.948 0 3.542-1.414 3.542-3.142V4.141C43.664 2.413 42.07 1 40.122 1zM6.923 3.523v4.819M35.77 3.523v4.819M1.5 6.77h41.695M7 11.95v.629m8-.629v.629m7-.629v.629m7-.629v.629m7-.629v.629M7 18.24v.63m8-.63v.63m7-.63v.63m7-.63v.63m7-.63v.63m-29 5.6v.628m8-.628v.628m7-.628v.628m7-.628v.628m7-.628v.628" stroke-width="1.774" stroke="#3D77EA" fill="none" stroke-linecap="round" stroke-linejoin="round"/></svg>