<?xml version="1.0" encoding="iso-8859-1"?>
<!-- Generator: Adobe Illustrator 19.0.0, SVG Export Plug-In . SVG Version: 6.00 Build 0)  -->
<svg version="1.1" id="Layer_1" xmlns="http://www.w3.org/2000/svg" xmlns:xlink="http://www.w3.org/1999/xlink" x="0px" y="0px"
	 viewBox="0 0 492.322 492.322" style="enable-background:new 0 0 492.322 492.322;" xml:space="preserve">
<g>
	<g>
		<path d="M394.125,208.365c-2.711-3.88-8.548-11.216-8.961-11.712C286.423,88.029,261.894,24.678,256.731,7.856
			C255.289,3.159,251.039,0,246.144,0C241.25,0,237,3.159,235.558,7.851c-5.164,16.832-29.692,80.192-128.837,189.298
			c0,0-5.837,7.337-8.548,11.212c-24.654,35.212-35.894,78.418-31.644,121.668c8.26,84.106,75.173,151.875,159.106,161.144
			c6.981,0.769,13.913,1.149,20.798,1.149c44.529,0,86.567-15.981,120.115-46.029c38.212-34.221,60.125-83.25,60.125-134.51
			C426.673,274.543,415.414,238.784,394.125,208.365z M353.414,431.625c-34.519,30.918-79.115,45.111-125.625,39.971
			c-74.721-8.25-134.308-68.601-141.664-143.49c-3.788-38.577,6.221-77.087,28.183-108.452c2.394-3.418,7.442-9.774,7.423-9.774
			c77.038-84.76,110.413-143.683,124.413-174.933c13.981,31.231,47.289,90.063,124.029,174.462
			c0.029,0.038,5.346,6.712,7.817,10.245c18.962,27.096,28.99,58.952,28.99,92.13C406.981,357.452,387.452,401.135,353.414,431.625z
			"/>
	</g>
</g>
<g>
	<g>
		<path d="M136.51,323.144l-19.596,1.933c5.846,59.442,54.981,109.216,114.279,115.774l2.173-19.577
			C183.106,415.721,141.471,373.534,136.51,323.144z"/>
	</g>
</g>
<g>
</g>
<g>
</g>
<g>
</g>
<g>
</g>
<g>
</g>
<g>
</g>
<g>
</g>
<g>
</g>
<g>
</g>
<g>
</g>
<g>
</g>
<g>
</g>
<g>
</g>
<g>
</g>
<g>
</g>
</svg>
