<svg width="26" height="26" viewBox="0 0 26 26" xmlns="http://www.w3.org/2000/svg"><title>duster-blue</title><g fill="none" fill-rule="evenodd"><path d="M16.537 14.127l8.082 9.57a.825.825 0 0 1 0 1.159.817.817 0 0 1-1.156 0l-9.648-8 2.722-2.73z" stroke="#3D77EA" stroke-linecap="square" stroke-linejoin="round"/><path d="M.802 13.978s-.017-.858.232-2.13c0 0 .002.003.002-.003.3-.08 1.808-.618 3.255-.366 0 0-1.403-.965-2.775-1.421.319-.933.903-2.143 1.568-3.15 2.764-.045 5.631 2.1 5.631 2.1-2.537-3.263-2.27-5.469-2.27-5.469.689-.429 1.808-.969 2.67-1.309.329 1.68 2.056 3.067 2.056 3.067-.333-1.921.22-3.78.22-3.78a22.24 22.24 0 0 1 2.298-.418s-.679 6.537 3.807 12.068l-4.58 4.59S8.333 13.08.803 13.978z" stroke="#3D77EA" stroke-linecap="square" stroke-linejoin="round"/><path d="M2.844 18.464a.894.894 0 0 1-.893-.896.893.893 0 0 1 1.785 0c0 .495-.4.896-.892.896m3.513-.194a.588.588 0 1 1 .587-.588.587.587 0 0 1-.587.587m-2.324 4.197a1.155 1.155 0 0 1 0-2.312 1.155 1.155 0 0 1 0 2.312" fill="#0C998C"/></g></svg>