<svg width="44" height="35" viewBox="0 0 44 35" xmlns="http://www.w3.org/2000/svg"><title>hand-cleaning@3x</title><g fill="none" fill-rule="evenodd"><path d="M7.698 3l5.707 7.091L28.09 12.41 35 21.1h-7.774s-3.647 5.022-16.892 3.67c0 0-5.873-1.448-5.873-7.919L1 10.916 7.698 3z" stroke="#3D77EA" stroke-width="1.774" stroke-linecap="round" stroke-linejoin="round"/><path d="M35.272 21s14.88 2.387 3.345 5.306c-11.533 2.92-6.733 5.363-6.733 5.363s3.981 3.336-6.557 2.026c0 0-5.35-.767-7.69-1.453-2.343-.688-8.574-3.839-13.218-1.778-4.644 2.06-3.21-2.383-3.21-2.383s1.433-4.38 6.172-5.119M27 21s-.786-3.404-9-1.33" stroke="#3D77EA" stroke-width="1.774" stroke-linecap="round" stroke-linejoin="round"/><path d="M26.015.149V0c0 .031-.005.059-.005.089C26.004.037 26.002 0 26.002 0v.2C25.848 3.565 22 4.5 22 4.5c3.368.464 3.904 3.636 3.983 4.351V9c0-.031.006-.058.006-.089.006.052.008.089.008.089l.001-.2C26.15 5.435 30 4.5 30 4.5 26.632 4.036 26.094.864 26.015.149m9.495 7.95V8c0 .021-.003.038-.005.06L35.501 8v.134C35.406 10.376 33 11.001 33 11.001c2.105.308 2.44 2.424 2.49 2.9V14c0-.02.003-.038.003-.058L35.5 14v-.134c.094-2.242 2.5-2.865 2.5-2.865-2.105-.31-2.441-2.426-2.49-2.902" fill="#3D77EA"/></g></svg>