<svg width="51" height="65" viewBox="0 0 51 65" xmlns="http://www.w3.org/2000/svg"><title>oven-white</title><g stroke-width="1.774" stroke="#FFF" fill="none" fill-rule="evenodd" stroke-linecap="round" stroke-linejoin="round"><path d="M47.916 63.532H3.164a1.709 1.709 0 0 1-1.704-1.704V24.264a1.71 1.71 0 0 1 1.704-1.703h44.752a1.71 1.71 0 0 1 1.705 1.703v37.564c0 .938-.767 1.704-1.705 1.704z"/><path d="M40.892 55.873H10.188a.796.796 0 0 1-.793-.793V37.594c0-.436.357-.793.793-.793h30.704c.436 0 .793.357.793.793V55.08a.796.796 0 0 1-.793.793zm.337-25.968H9.395m3.965-12.69s3.368-4.45 0-7.817c-3.367-3.368 0-7.938 0-7.938m11.664 15.755s3.367-4.45 0-7.817c-3.368-3.368 0-7.938 0-7.938m11.663 15.755s3.367-4.45 0-7.817c-3.368-3.368 0-7.938 0-7.938"/></g></svg>