<?xml version="1.0" encoding="iso-8859-1"?>
<!-- Generator: Adobe Illustrator 19.0.0, SVG Export Plug-In . SVG Version: 6.00 Build 0)  -->
<svg version="1.1" id="Layer_1" xmlns="http://www.w3.org/2000/svg" xmlns:xlink="http://www.w3.org/1999/xlink" x="0px" y="0px"
	 viewBox="0 0 295.24 295.24" style="enable-background:new 0 0 295.24 295.24;" xml:space="preserve">
<g>
	<g>
		<g>
			<path d="M223.809,0.001h-9.524h-42.857h-9.524h-7.31l-16.757,25.133c-7.395,11.095-19.781,17.724-33.114,17.724
				c-2.814,0-5.652-0.281-8.424-0.833l-4.61-0.919C69.332,36.63,45.922,37.187,23.77,42.72l-10.305,2.576
				C6.657,47.001,1.48,52.282,0.285,58.744c-1.629,8.829,3.886,17.448,12.562,19.614l10.929,2.729
				c22.152,5.543,45.562,6.095,67.919,1.619l4.605-0.919c2.776-0.552,5.61-0.833,8.424-0.833c13.333,0,25.714,6.629,33.114,17.724
				l16.757,25.133h7.31h9.524h42.857v83.333c0,6.567,5.338,11.905,11.905,11.905c1.31,0,2.381,1.071,2.381,2.381v35.714
				c0,7.876,6.41,14.286,14.286,14.286c7.876,0,14.286-6.41,14.286-14.286v-4.762c0-2.629,2.133-4.762,4.762-4.762
				c2.629,0,4.762,2.133,4.762,4.762v28.571c0,7.876,6.41,14.286,14.286,14.286c7.876,0,14.286-6.41,14.286-14.286V119.049V0.001
				H223.809z M161.904,114.287h-2.214l-13.929-20.896c-9.167-13.748-24.51-21.962-41.038-21.962c-3.438,0-6.895,0.343-10.29,1.019
				l-4.61,0.919c-20.986,4.205-42.952,3.676-63.743-1.514l-10.929-2.729c-3.805-0.952-6.224-4.748-5.495-8.643
				c0.51-2.767,2.976-5.157,6.124-5.943l10.3-2.576c20.795-5.19,42.757-5.714,63.743-1.514l4.614,0.919
				c3.39,0.671,6.852,1.014,10.286,1.014c16.529,0,31.867-8.214,41.038-21.962L159.69,9.525h2.214V114.287z M214.285,114.287
				h-42.857V9.525h42.857V114.287z M280.952,285.715c-2.629,0-4.762-2.133-4.762-4.762v-28.571c0-7.876-6.41-14.286-14.286-14.286
				c-7.876,0-14.286,6.41-14.286,14.286v4.762c0,2.629-2.133,4.762-4.762,4.762c-2.629,0-4.762-2.133-4.762-4.762V221.43
				c0-6.567-5.338-11.905-11.905-11.905c-1.31,0-2.381-1.071-2.381-2.381v-83.333v-4.762V9.525h61.905v109.524v161.904h0.001
				C285.714,283.582,283.581,285.715,280.952,285.715z"/>
			<circle cx="33.333" cy="61.906" r="4.762"/>
			<rect x="261.904" y="23.811" width="9.524" height="166.667"/>
			<rect x="261.904" y="200.001" width="9.524" height="9.524"/>
			<rect x="238.095" y="23.811" width="9.524" height="142.857"/>
			<rect x="238.095" y="176.191" width="9.524" height="9.524"/>
		</g>
	</g>
</g>
<g>
</g>
<g>
</g>
<g>
</g>
<g>
</g>
<g>
</g>
<g>
</g>
<g>
</g>
<g>
</g>
<g>
</g>
<g>
</g>
<g>
</g>
<g>
</g>
<g>
</g>
<g>
</g>
<g>
</g>
</svg>
