<?xml version="1.0" encoding="iso-8859-1"?>
<!-- Generator: Adobe Illustrator 19.0.0, SVG Export Plug-In . SVG Version: 6.00 Build 0)  -->
<svg version="1.1" id="Capa_1" xmlns="http://www.w3.org/2000/svg" xmlns:xlink="http://www.w3.org/1999/xlink" x="0px" y="0px"
	 viewBox="0 0 539.077 539.077" style="enable-background:new 0 0 539.077 539.077;" xml:space="preserve">
<g>
	<g>
		<path d="M306.806,539.077h-22.462c-16.649,0-48.499-13.512-48.499-34.679V335.936c0-22.747,23.997-39.066,44.923-43.629v-56.461
			c0-6.087-5.144-11.231-11.231-11.231H89.846c-18.579,0-33.692-15.113-33.692-33.692v-89.846c0-18.579,15.113-33.692,33.692-33.692
			h22.462c6.208,0,11.231,5.023,11.231,11.231c0,6.208-5.023,11.231-11.231,11.231H89.846c-6.087,0-11.231,5.144-11.231,11.231
			v89.846c0,6.197,5.034,11.231,11.231,11.231h179.692c18.579,0,33.692,15.113,33.692,33.692v56.461
			c20.926,4.562,44.923,20.882,44.923,43.629v168.462C348.154,523.613,325.539,539.077,306.806,539.077z M292,313.474
			c-13.918,0-33.692,11.626-33.692,22.462v168.462c1.294,3.97,17.109,12.218,26.037,12.218h22.462
			c7.962,0,18.886-7.787,18.886-12.218V335.936C325.692,325.1,305.907,313.474,292,313.474z"/>
		<path d="M449.231,157.231H112.308c-6.208,0-11.231-5.023-11.231-11.231V11.231C101.077,5.023,106.1,0,112.308,0h336.923
			c6.208,0,11.231,5.023,11.231,11.231v56.154h11.231c6.208,0,11.231,5.023,11.231,11.231c0,6.208-5.023,11.231-11.231,11.231
			h-11.231V146C460.462,152.208,455.438,157.231,449.231,157.231z M123.538,134.769H438V22.462H123.538V134.769z"/>
	</g>
</g>
<g>
</g>
<g>
</g>
<g>
</g>
<g>
</g>
<g>
</g>
<g>
</g>
<g>
</g>
<g>
</g>
<g>
</g>
<g>
</g>
<g>
</g>
<g>
</g>
<g>
</g>
<g>
</g>
<g>
</g>
</svg>
