<?xml version="1.0" encoding="iso-8859-1"?>
<!-- Generator: Adobe Illustrator 19.0.0, SVG Export Plug-In . SVG Version: 6.00 Build 0)  -->
<svg version="1.1" id="Layer_1" xmlns="http://www.w3.org/2000/svg" xmlns:xlink="http://www.w3.org/1999/xlink" x="0px" y="0px"
	 viewBox="0 0 512 512" style="enable-background:new 0 0 512 512;" xml:space="preserve">
<circle style="fill:#273B7A;" cx="256" cy="256" r="256"/>
<path style="fill:#121149;" d="M285.77,510.267C413.127,495.514,512,387.313,512,256c0-7.209-0.314-14.345-0.898-21.404
	l-116.85-116.85L212.406,303.773l12.186,12.186l-50.672,82.458L285.77,510.267z"/>
<path style="fill:#E09112;" d="M203.178,328.937l-20.113-20.113l191.074-191.078c5.554-5.554,14.558-5.554,20.113,0l0,0
	c5.554,5.554,5.554,14.558,0,20.113L203.178,328.937z"/>
<g>
	<path style="fill:#FF5419;" d="M394.252,117.746c-0.193-0.193-0.402-0.365-0.603-0.545L192.546,318.305l10.631,10.631
		l191.076-191.076C399.806,132.306,399.806,123.301,394.252,117.746z"/>
	
		<rect x="176.264" y="293.084" transform="matrix(0.7071 0.7071 -0.7071 0.7071 277.2555 -54.7426)" style="fill:#FF5419;" width="56.888" height="28.444"/>
</g>
<rect x="199.86" y="302.849" transform="matrix(0.7071 0.7071 -0.7071 0.7071 287.0252 -58.7979)" style="fill:#930000;" width="29.256" height="28.444"/>
<path style="fill:#FFEDB5;" d="M173.921,398.419l-60.34-60.34l43.934-43.934c9.061-9.061,23.75-9.061,32.811,0l27.529,27.529
	c9.061,9.061,9.061,23.75,0,32.811L173.921,398.419z"/>
<path style="fill:#FEE187;" d="M203.517,307.334l-60.34,60.34l30.744,30.744l43.934-43.934c9.061-9.061,9.061-23.75,0-32.811
	L203.517,307.334z"/>
<g>
	
		<rect x="151.218" y="309.627" transform="matrix(-0.7071 -0.7071 0.7071 -0.7071 23.5065 685.8796)" style="fill:#FFC61B;" width="5.172" height="56.888"/>
	
		<rect x="139.34" y="297.753" transform="matrix(-0.7071 -0.7071 0.7071 -0.7071 11.6262 657.2106)" style="fill:#FFC61B;" width="5.172" height="56.888"/>
	
		<rect x="179.559" y="337.969" transform="matrix(-0.7071 -0.7071 0.7071 -0.7071 51.847 754.3021)" style="fill:#FFC61B;" width="5.172" height="56.888"/>
</g>
<g>
</g>
<g>
</g>
<g>
</g>
<g>
</g>
<g>
</g>
<g>
</g>
<g>
</g>
<g>
</g>
<g>
</g>
<g>
</g>
<g>
</g>
<g>
</g>
<g>
</g>
<g>
</g>
<g>
</g>
</svg>
