<?xml version="1.0" encoding="utf-8"?>
<!-- Generator: Adobe Illustrator 19.1.0, SVG Export Plug-In . SVG Version: 6.00 Build 0)  -->
<svg version="1.1" id="Layer_1" xmlns="http://www.w3.org/2000/svg" xmlns:xlink="http://www.w3.org/1999/xlink" x="0px" y="0px"
	 viewBox="0 0 64 64" enable-background="new 0 0 64 64" xml:space="preserve">
<path id="Roller" d="M55.9071999,8.5h-2.8633003C53.0284004,8.5,53.0153999,8.5080996,53,8.5088997V6.1921
	c0-3.1436-2.5485001-5.6921-5.6921005-5.6921H8.6920013c-3.1436,0-5.6919994,2.5485001-5.6919994,5.6921v6.6158004
	C3.0000017,15.9514999,5.5484014,18.5,8.6920013,18.5h38.6158981C50.4514999,18.5,53,15.9514999,53,12.8079004v-2.3168001
	C53.0153999,10.4919004,53.0284004,10.5,53.0438995,10.5h2.8633003C57.6123009,10.5,59,11.8114996,59,13.4229002v5.4383993
	c0,1.4971008-0.6114006,2.9082012-1.7198029,3.9717007C56.1737976,23.8925991,54.6395988,24.5,53.072197,24.5h-19.434494
	c-1.7647018,0-3.4258022,0.6611004-4.6783009,1.8603992c-1.2455997,1.1933002-1.9594002,2.8486004-1.9594002,4.5419006V37.5h-2
	c-1.1046009,0-2,0.895401-2,2v22c0,1.104599,0.8953991,2,2,2h6C32.1044998,63.5,33,62.604599,33,61.5v-22
	c0-1.104599-0.8955002-2-1.9999981-2h-2v-6.5977001c0-1.1679001,0.4769993-2.2674999,1.3437004-3.097599
	C31.2090015,26.9755993,32.4091034,26.5,33.6377029,26.5h19.434494c2.1084023,0,4.0938034-0.7891006,5.5918007-2.2227001
	C60.1483994,22.8535004,61,20.8789005,61,18.8612995v-5.4383993C61,10.7080002,58.7157974,8.5,55.9071999,8.5z
	 M51.1026001,12.8079004c0,2.0923996-1.7022972,3.7947989-3.7947006,3.7947989H8.6920013
	c-2.0923996,0-3.7946997-1.7023993-3.7946997-3.7947989V6.1921c0-2.0924001,1.7023001-3.7948,3.7946997-3.7948h38.6158981
	c2.0924034,0,3.7947006,1.7024,3.7947006,3.7948V12.8079004z M31.0000019,39.5v22h-6v-22H31.0000019z"/>
<g>
</g>
<g>
</g>
<g>
</g>
<g>
</g>
<g>
</g>
<g>
</g>
<g>
</g>
<g>
</g>
<g>
</g>
<g>
</g>
<g>
</g>
<g>
</g>
<g>
</g>
<g>
</g>
<g>
</g>
</svg>
