<svg width="25" height="24" viewBox="0 0 25 24" xmlns="http://www.w3.org/2000/svg"><title>pan-blue</title><path d="M17.324 8.102l-.656-.658a.8.8 0 0 1 0-1.126l3.744-3.754a.794.794 0 0 1 1.123 0l.656.658a.797.797 0 0 1 0 1.124l-3.744 3.756a.794.794 0 0 1-1.123 0zM14.922 23.1l-8.409-4.815-4.856-8.487a1.122 1.122 0 0 1 0-1.58L8.76 1.094a1.115 1.115 0 0 1 1.576 0l13.265 13.303a1.12 1.12 0 0 1 0 1.579L16.497 23.1a1.113 1.113 0 0 1-1.575 0zm4.726-8.426l-3.556 3.566m.36-6.77l-5.197 5.21m2-8.416L8.06 13.475m2-8.415L6.503 8.624" stroke="#3D77EA" fill="none" stroke-linecap="round" stroke-linejoin="round"/></svg>