<?xml version="1.0" encoding="iso-8859-1"?>
<!-- Generator: Adobe Illustrator 19.0.0, SVG Export Plug-In . SVG Version: 6.00 Build 0)  -->
<svg version="1.1" id="Layer_1" xmlns="http://www.w3.org/2000/svg" xmlns:xlink="http://www.w3.org/1999/xlink" x="0px" y="0px"
	 viewBox="0 0 511.999 511.999" style="enable-background:new 0 0 511.999 511.999;" xml:space="preserve">
<g>
	<g>
		<path d="M499.478,284.242H391.008l76.7-76.7c4.029-4.029,4.029-10.562,0-14.59L321.249,46.494
			c-1.936-1.936-4.559-3.022-7.297-3.022c-2.738,0-5.36,1.087-7.296,3.022l-76.698,76.7V10.317C229.958,4.619,225.34,0,219.641,0
			H12.521C6.821,0,2.203,4.619,2.203,10.317v394.385c0,59.163,48.133,107.296,107.296,107.296h2.175h10.99h376.814
			c5.699,0,10.317-4.619,10.317-10.317V294.56C509.796,288.862,505.177,284.242,499.478,284.242z M229.96,155.911L360.058,286.01
			l-71.104,71.104l-58.995-58.996V155.911z M229.96,404.703v-77.404l44.403,44.405l-45.106,45.106
			C229.706,412.833,229.96,408.798,229.96,404.703z M22.838,20.635h186.487v93.944H22.838V20.635z M22.838,135.213h186.488v100.554
			h-0.001H22.838V135.213z M22.838,256.402h186.487v100.554H22.838V256.402z M122.665,491.364h-13.166v0.001
			c-47.785,0-86.661-38.876-86.661-86.661V377.59h186.488v27.113C209.326,452.488,170.45,491.364,122.665,491.364z M246.788,491.364
			h-60.964c10.954-8.006,20.332-18.035,27.597-29.534l33.367-33.367V491.364z M367.971,491.364H267.421v-83.535l100.549-100.549
			V491.364z M242.783,139.552l71.171-71.171l131.866,131.866l-71.171,71.171L242.783,139.552z M489.161,491.365H388.606V304.877
			h100.555V491.365z"/>
	</g>
</g>
<g>
	<g>
		<path d="M116.081,394.414c-14.193,0-25.741,11.549-25.741,25.741c0,14.193,11.549,25.741,25.741,25.741
			c14.193,0,25.741-11.547,25.741-25.741C141.823,405.962,130.274,394.414,116.081,394.414z M116.081,425.262
			c-2.816,0-5.106-2.291-5.106-5.106c0-2.816,2.29-5.106,5.106-5.106c2.816,0,5.106,2.292,5.106,5.106
			C121.188,422.97,118.897,425.262,116.081,425.262z"/>
	</g>
</g>
<g>
</g>
<g>
</g>
<g>
</g>
<g>
</g>
<g>
</g>
<g>
</g>
<g>
</g>
<g>
</g>
<g>
</g>
<g>
</g>
<g>
</g>
<g>
</g>
<g>
</g>
<g>
</g>
<g>
</g>
</svg>
